<?xml version="1.0" encoding="UTF-8" standalone="no"?>
<!-- Created with Inkscape (http://www.inkscape.org/) -->

<svg
   xmlns:dc="http://purl.org/dc/elements/1.1/"
   xmlns:cc="http://creativecommons.org/ns#"
   xmlns:rdf="http://www.w3.org/1999/02/22-rdf-syntax-ns#"
   xmlns:svg="http://www.w3.org/2000/svg"
   xmlns="http://www.w3.org/2000/svg"
   xmlns:sodipodi="http://sodipodi.sourceforge.net/DTD/sodipodi-0.dtd"
   xmlns:inkscape="http://www.inkscape.org/namespaces/inkscape"
   width="54.752411mm"
   height="37.35318mm"
   viewBox="0 0 54.752412 37.353181"
   version="1.1"
   id="svg8"
   inkscape:version="0.92.4 (5da689c313, 2019-01-14)"
   sodipodi:docname="backgroundpattern.svg">
  <defs
     id="defs2" />
  <sodipodi:namedview
     id="base"
     pagecolor="#ffffff"
     bordercolor="#666666"
     borderopacity="1.0"
     inkscape:pageopacity="0.0"
     inkscape:pageshadow="2"
     inkscape:zoom="4"
     inkscape:cx="72.441489"
     inkscape:cy="37.122982"
     inkscape:document-units="mm"
     inkscape:current-layer="layer1"
     showgrid="false"
     inkscape:snap-global="false"
     fit-margin-top="0"
     fit-margin-left="0"
     fit-margin-right="0"
     fit-margin-bottom="0"
     inkscape:window-width="2560"
     inkscape:window-height="1369"
     inkscape:window-x="-8"
     inkscape:window-y="-8"
     inkscape:window-maximized="1" />
  <metadata
     id="metadata5">
    <rdf:RDF>
      <cc:Work
         rdf:about="">
        <dc:format>image/svg+xml</dc:format>
        <dc:type
           rdf:resource="http://purl.org/dc/dcmitype/StillImage" />
        <dc:title></dc:title>
      </cc:Work>
    </rdf:RDF>
  </metadata>
  <g
     inkscape:label="Layer 1"
     inkscape:groupmode="layer"
     id="layer1"
     transform="translate(208.77172,-68.84594)">
    <rect
       style="opacity:1;vector-effect:none;fill:#f3f4ff;fill-opacity:1;stroke:none;stroke-width:1;stroke-linecap:round;stroke-linejoin:miter;stroke-miterlimit:4;stroke-dasharray:none;stroke-dashoffset:0;stroke-opacity:1"
       id="rect2468"
       width="73.421875"
       height="44.383854"
       x="-216.31235"
       y="107.72047" />
    <g
       id="g2263"
       transform="translate(-0.9921875,1.190625)"
       style="stroke:none;stroke-opacity:1;fill:#b1b3dc;fill-opacity:1"
       inkscape:export-xdpi="105.7"
       inkscape:export-ydpi="105.7">
      <path
         style="stroke-width:0.26458332;stroke:none;stroke-opacity:1;fill:#b1b3dc;fill-opacity:1"
         inkscape:connector-curvature="0"
         d="m -177.61661,103.22157 h 0.58208 l 5.86052,-5.860515 -0.58208,-0.582083 -5.86052,5.860518 z m 8.12272,-6.429369 -1.69334,-1.693333 0.55563,-0.555625 q 0.22489,-0.224896 0.55563,-0.224896 0.33072,0 0.55562,0.224896 l 0.58208,0.582083 q 0.22489,0.224896 0.22489,0.555625 0,0.330729 -0.22489,0.555625 z m -0.55564,0.555625 -6.66749,6.667494 h -1.69334 v -1.69333 l 6.6675,-6.667497 z m -1.41551,-0.277812 -0.29105,-0.291042 0.58208,0.582083 z"
         id="path1462" />
      <path
         style="stroke-width:0.26458332;stroke:none;stroke-opacity:1;fill:#b1b3dc;fill-opacity:1"
         inkscape:connector-curvature="0"
         d="m -186.22049,103.92934 q -0.15875,0 -0.27781,-0.11907 -0.11906,-0.11906 -0.11906,-0.27781 0,-0.17198 0.11906,-0.28443 0.11906,-0.11244 0.27781,-0.11244 0.78052,0 1.31631,-0.3175 0.53578,-0.3175 0.53578,-0.74085 0,-0.30427 -0.39026,-0.5953 -0.39026,-0.29104 -1.05172,-0.44979 l 0.62177,-0.62177 q 0.83344,0.25135 1.2237,0.69453 0.39026,0.44318 0.39026,0.97234 0,0.88636 -0.80698,1.36922 -0.80698,0.48287 -1.83886,0.48287 z m -4.23333,-3.88938 q -0.84667,-0.185206 -1.21708,-0.582086 -0.37042,-0.396877 -0.37042,-0.820208 0,-0.46302 0.34396,-0.833437 0.34396,-0.370417 1.5875,-0.820208 0.87312,-0.317499 1.12448,-0.515938 0.25135,-0.198437 0.25135,-0.463021 0,-0.330729 -0.29104,-0.568854 -0.29104,-0.238125 -0.89958,-0.238125 -0.35719,0 -0.60854,0.0926 -0.25136,0.0926 -0.4498,0.291042 -0.10583,0.105833 -0.27119,0.125677 -0.16537,0.01984 -0.29766,-0.08599 -0.14552,-0.105833 -0.15214,-0.264583 -0.007,-0.15875 0.0992,-0.277812 0.2249,-0.291042 0.67469,-0.482865 0.44979,-0.191823 1.00542,-0.191823 0.89958,0 1.44198,0.429948 0.54239,0.429947 0.54239,1.170781 0,0.542396 -0.37703,0.919427 -0.37703,0.377032 -1.47505,0.787136 -0.88636,0.330729 -1.17078,0.522552 -0.28443,0.191823 -0.28443,0.403489 0,0.211667 0.35719,0.403494 0.35719,0.19182 1.07156,0.363799 z m 6.56167,-2.037294 -1.69334,-1.693333 0.59532,-0.595312 q 0.23812,-0.238125 0.52916,-0.238125 0.29104,0 0.52917,0.238125 l 0.635,0.635 q 0.23812,0.238125 0.23812,0.529166 0,0.291043 -0.23812,0.529167 z m -6.82625,5.132924 h 0.55562 l 4.56406,-4.564069 -0.55562,-0.555625 -4.56406,4.564054 z m -0.79375,0.79375 v -1.69335 l 5.35781,-5.357803 1.69333,1.693334 -5.35781,5.357809 z m 5.35781,-5.913444 0.55562,0.555626 z"
         id="path1483" />
      <path
         style="stroke-width:0.26458332;stroke:none;stroke-opacity:1;fill:#b1b3dc;fill-opacity:1"
         inkscape:connector-curvature="0"
         d="m -201.58448,103.13558 v -0.93926 l 2.85749,-2.857499 0.93927,0.939269 -2.8575,2.85749 z m -4.7625,-2.77812 v -0.793746 h 3.96875 v 0.793746 z m 9.12813,-0.648226 -0.93928,-0.939273 0.38365,-0.38364 q 0.10583,-0.10584 0.2778,-0.10584 0.17198,0 0.27782,0.10584 l 0.38364,0.38364 q 0.10583,0.10583 0.10583,0.27781 0,0.17198 -0.10583,0.27782 z m -9.12813,-1.534583 v -0.79375 h 6.21771 v 0.79375 z m 0,-2.182813 v -0.79375 h 6.21771 v 0.79375 z"
         id="path1504" />
      <path
         style="stroke-width:0.26458332;stroke:none;stroke-opacity:1;fill:#b1b3dc;fill-opacity:1"
         inkscape:connector-curvature="0"
         d="m -161.84154,90.550699 q -0.3175,0 -0.55562,-0.23813 -0.23814,-0.238123 -0.23814,-0.555623 V 88.43403 h 1.64043 v -1.680104 q -0.50272,0.03969 -1.00542,-0.138907 -0.50271,-0.178593 -0.89958,-0.562239 v -0.767292 h -0.66146 l -1.73302,-1.733021 q 0.47625,-0.449791 1.13771,-0.734219 0.66146,-0.284427 1.34937,-0.284427 0.39688,0 0.9062,0.125677 0.50932,0.125678 0.9062,0.40349 V 82.08403 h 6.01927 v 7.077604 q 0,0.582083 -0.40349,0.985573 -0.40349,0.403492 -0.98557,0.403492 z m 1.64042,-2.116669 h 3.24115 v 0.727604 q 0,0.264583 0.16536,0.429948 0.16536,0.165364 0.42995,0.165364 0.26458,0 0.42995,-0.165364 0.16535,-0.165365 0.16535,-0.429948 V 82.87778 h -4.43177 v 0.754062 l 3.18823,3.188229 v 0.568855 h -0.56886 l -1.66686,-1.666875 -0.2249,0.264583 q -0.17198,0.198437 -0.34395,0.304271 -0.17198,0.105833 -0.38365,0.198437 z m -3.00302,-3.942292 h 1.09802 v 1.177396 q 0.2249,0.145521 0.44318,0.218281 0.21828,0.07276 0.44317,0.07276 0.33073,0 0.67469,-0.178594 0.34396,-0.178594 0.50271,-0.363802 l 0.2249,-0.264584 -0.91282,-0.912812 q -0.42333,-0.423333 -0.9525,-0.668073 -0.52916,-0.24474 -1.12448,-0.24474 -0.35718,0 -0.64823,0.08599 -0.29104,0.08599 -0.59531,0.23151 z m 5.45042,4.736042 h -4.08782 v 0.529166 h 4.27302 q -0.0794,-0.07937 -0.13229,-0.218281 -0.0529,-0.138906 -0.0529,-0.310885 z m -4.08782,0.529166 V 89.22778 Z"
         id="path1525" />
      <path
         style="stroke-width:0.26458332;stroke:none;stroke-opacity:1;fill:#b1b3dc;fill-opacity:1"
         inkscape:connector-curvature="0"
         d="m -192.9201,91.132794 v -2.063751 l 2.56646,-2.566458 -2.36802,-2.38125 q -0.11906,-0.119063 -0.1786,-0.264584 -0.0595,-0.14552 -0.0595,-0.291041 0,-0.145521 0.0595,-0.291042 0.0595,-0.145521 0.1786,-0.264583 l 1.19062,-1.203854 q 0.11907,-0.119063 0.26459,-0.178594 0.14552,-0.05953 0.29104,-0.05953 0.14552,0 0.29765,0.05953 0.15214,0.05953 0.2712,0.178594 l 2.38125,2.38125 2.60615,-2.606146 q 0.0661,-0.06615 0.13229,-0.08599 0.0661,-0.01984 0.14552,-0.01984 0.0794,0 0.14552,0.01984 0.0662,0.01984 0.13229,0.08599 l 1.4949,1.494896 q 0.0661,0.06614 0.086,0.132291 0.0198,0.06615 0.0198,0.145521 0,0.07937 -0.0198,0.145521 -0.0199,0.06615 -0.086,0.132292 l -2.60615,2.606145 2.38125,2.38125 q 0.11906,0.119063 0.1786,0.271198 0.0595,0.152136 0.0595,0.297657 0,0.14552 -0.0595,0.291041 -0.0595,0.145521 -0.1786,0.264584 l -1.19062,1.177393 q -0.11906,0.11907 -0.26459,0.1786 -0.14552,0.0595 -0.29104,0.0595 -0.14552,0 -0.29104,-0.0595 -0.14552,-0.0595 -0.26458,-0.1786 l -2.38125,-2.368018 -2.57969,2.579688 z m 3.13531,-5.199063 1.19063,-1.190625 -0.96573,-0.96573 -0.635,0.635 -0.55563,-0.555625 0.635,-0.635 -0.84666,-0.846666 -1.19063,1.190625 z m 4.41854,4.431773 1.19063,-1.190628 -0.84667,-0.846666 -0.635,0.635 -0.55562,-0.555625 0.635,-0.635 -0.96573,-0.965729 -1.19063,1.190625 z m -6.7601,-0.0265 h 0.92604 l 5.49011,-5.490107 -0.92605,-0.926042 -5.4901,5.490104 z m 6.97177,-6.045732 0.92604,-0.926042 -0.92604,-0.926041 -0.92604,0.926041 z"
         id="path1546" />
      <path
         style="stroke-width:0.26458332;stroke:none;stroke-opacity:1;fill:#b1b3dc;fill-opacity:1"
         inkscape:connector-curvature="0"
         d="m -206.86196,89.492365 v -0.79375 h 6.35 v 0.79375 z m 0,-2.778125 v -0.793751 h 9.525 v 0.793751 z m 0,-2.778126 v -0.79375 h 9.525 v 0.79375 z"
         id="path1567" />
      <path
         style="stroke-width:0.26458332;stroke:none;stroke-opacity:1;fill:#b1b3dc;fill-opacity:1"
         inkscape:connector-curvature="0"
         d="m -178.44246,91.609031 q -0.3175,0 -0.55563,-0.23812 -0.23812,-0.23813 -0.23812,-0.55563 v -8.995833 q 0,-0.3175 0.23812,-0.555625 0.23813,-0.238125 0.55563,-0.238125 h 4.49791 l 3.175,3.175 v 2.06375 h -0.79375 v -1.534583 h -2.91041 v -2.910417 h -3.96875 v 8.995833 h 3.96875 v 0.79375 z m 0,-0.79375 v -8.995833 z m 7.09083,-2.950103 0.37042,0.370416 -2.16959,2.169587 v 0.67468 h 0.67469 l 2.16958,-2.169579 0.37042,0.370416 -2.32833,2.328333 h -1.41552 v -1.41552 z m 1.41552,1.41552 -1.41552,-1.41552 0.80698,-0.80698 q 0.11906,-0.119062 0.27781,-0.119062 0.15875,0 0.27781,0.119062 l 0.8599,0.859896 q 0.11906,0.119063 0.11906,0.277813 0,0.15875 -0.11906,0.277812 z"
         id="path2139" />
      <path
         style="stroke-width:0.26458332;stroke:none;stroke-opacity:1;fill:#b1b3dc;fill-opacity:1"
         inkscape:connector-curvature="0"
         d="m -160.14821,78.230392 -3.83646,-2.103433 v -3.175 l -1.97114,-1.071563 5.8076,-3.175 5.83406,3.175 v 4.193646 h -0.79375 v -3.730625 l -1.20385,0.608542 v 3.175 z m 0,-4.074579 4.16719,-2.275417 -4.16719,-2.235729 -4.14073,2.235729 z m 0,3.175 3.04271,-1.680104 v -2.2225 l -3.04271,1.627187 -3.04271,-1.653646 v 2.248959 z m 0.0132,-3.175 z m -0.0132,0.978958 z m 0,0 z"
         id="path2160" />
      <path
         style="stroke-width:0.26458332;stroke:none;stroke-opacity:1;fill:#b1b3dc;fill-opacity:1"
         inkscape:connector-curvature="0"
         d="m -178.62105,77.172061 q -0.3175,0 -0.55563,-0.24474 -0.23813,-0.244739 -0.23813,-0.54901 v -5.820834 q 0,-0.3175 0.23813,-0.555625 0.23813,-0.238125 0.55563,-0.238125 h 8.99583 q 0.3175,0 0.55562,0.238125 0.23814,0.238125 0.23814,0.555625 v 5.820834 q 0,0.304271 -0.23814,0.54901 -0.23812,0.24474 -0.55562,0.24474 z m 0,-0.79375 h 8.99583 v -5.820834 h -8.99583 z m 2.11667,-0.859896 h 4.76249 v -0.79375 h -4.76249 z m -1.28323,-1.653646 h 0.79374 v -0.79375 h -0.79374 z m 1.64042,0 h 0.79374 v -0.79375 h -0.79374 z m 1.62719,0 h 0.79375 v -0.79375 H -174.52 Z m 1.64041,0 h 0.79375 v -0.79375 h -0.79375 z m 1.62719,0 h 0.79375 v -0.79375 h -0.79375 z m -6.53521,-1.653646 h 0.79375 v -0.79375 h -0.79375 z m 1.64042,0 h 0.79375 v -0.79375 h -0.79375 z m 1.62719,0 h 0.79375 v -0.79375 H -174.52 Z m 1.64041,0 h 0.79375 v -0.79375 h -0.79375 z m 1.62719,0 h 0.79375 v -0.79375 h -0.79375 z m -7.36865,4.167188 v -5.820834 z"
         id="path2181" />
      <path
         style="stroke-width:0.26458332;stroke:none;stroke-opacity:1;fill:#b1b3dc;fill-opacity:1"
         inkscape:connector-curvature="0"
         d="m -190.30734,76.801646 h 0.66146 v -1.164167 h 1.16416 v -0.661458 h -1.16416 v -1.164167 h -0.66146 v 1.164167 h -1.16417 v 0.661458 h 1.16417 z m 2.84427,-0.463021 h 2.65906 v -0.648229 h -2.65906 z m 0,-1.415521 h 2.65906 v -0.661458 h -2.65906 z m 0.48948,-2.156354 0.80698,-0.806979 0.80698,0.806979 0.47625,-0.47625 -0.80698,-0.806979 0.80698,-0.806979 -0.47625,-0.47625 -0.80698,0.806979 -0.80698,-0.806979 -0.47625,0.47625 0.80698,0.806979 -0.80698,0.806979 z m -4.29948,-0.9525 h 2.59292 v -0.661458 h -2.59292 z m -0.80698,6.416142 q -0.3175,0 -0.55562,-0.23812 -0.23813,-0.23813 -0.23813,-0.55563 v -7.937496 q 0,-0.3175 0.23813,-0.555625 0.23812,-0.238125 0.55562,-0.238125 h 7.9375 q 0.3175,0 0.55563,0.238125 0.23812,0.238125 0.23812,0.555625 v 7.937496 q 0,0.3175 -0.23812,0.55563 -0.23813,0.23812 -0.55563,0.23812 z m 0,-0.79375 h 7.9375 v -7.937496 h -7.9375 z m 0,-7.937496 v 7.937496 z"
         id="path2202" />
      <path
         style="stroke-width:0.26458332;stroke:none;stroke-opacity:1;fill:#b1b3dc;fill-opacity:1"
         inkscape:connector-curvature="0"
         d="m -203.1247,76.642893 v -0.79375 h 0.78052 l 1.60073,-1.838854 -1.60073,-1.865313 h -0.97896 l -0.93927,4.841875 q -0.10584,0.595313 -0.44979,0.919427 -0.34396,0.324115 -0.88636,0.324115 -0.54239,0 -0.9062,-0.3175 -0.3638,-0.3175 -0.3638,-0.79375 0,-0.357187 0.19844,-0.575469 0.19844,-0.218281 0.51594,-0.218281 0.27781,0 0.4564,0.15875 0.1786,0.15875 0.1786,0.423333 0,0.145521 -0.0595,0.271198 -0.0595,0.125677 -0.16536,0.205052 0.0529,0.02646 0.11245,0.03969 0.0595,0.01323 0.12567,0.01323 0.17197,0 0.29105,-0.165365 0.11905,-0.165364 0.17197,-0.429947 l 0.91282,-4.696355 h -1.66688 v -0.79375 h 1.8124 l 0.2778,-1.402291 q 0.11906,-0.595313 0.47625,-0.919427 0.35719,-0.324115 0.88636,-0.324115 0.54239,0 0.89296,0.3175 0.35058,0.317499 0.35058,0.79375 0,0.357187 -0.19844,0.575469 -0.19844,0.218281 -0.51594,0.218281 -0.26458,0 -0.44979,-0.152135 -0.18521,-0.152136 -0.18521,-0.40349 0,-0.132293 0.0529,-0.25797 0.0529,-0.125676 0.13229,-0.205051 -0.0265,-0.02646 -0.0794,-0.0463 -0.0529,-0.01984 -0.10584,-0.01984 -0.17198,0 -0.29765,0.158749 -0.12568,0.15875 -0.1786,0.410105 l -0.23812,1.256771 h 2.50031 v 0.79375 h -0.62177 l 1.09802,1.27 1.03188,-1.27 h -0.635 v -0.79375 h 2.46062 v 0.79375 h -0.76729 l -1.5875,1.865313 1.5875,1.838854 h 0.76729 v 0.79375 h -2.46062 v -0.79375 h 0.635 l -1.05834,-1.230312 -1.08479,1.230312 h 0.635 v 0.79375 z"
         id="path2223" />
      <path
         style="stroke-width:0.26458332;stroke:none;stroke-opacity:1;fill:#b1b3dc;fill-opacity:1"
         inkscape:connector-curvature="0"
         d="m -161.76975,102.50059 h 0.66146 v -1.16417 h 1.16416 v -0.66146 h -1.16416 v -1.164156 h -0.66146 v 1.164156 h -1.16417 v 0.66146 h 1.16417 z m 2.84427,-0.46302 h 2.65906 v -0.64823 h -2.65906 z m 0,-1.41552 h 2.65906 v -0.661456 h -2.65906 z m 0.48948,-2.156358 0.80698,-0.806979 0.80698,0.806979 0.47625,-0.47625 -0.80698,-0.806979 0.80698,-0.806978 -0.47625,-0.47625 -0.80698,0.806979 -0.80698,-0.806979 -0.47625,0.47625 0.80698,0.806978 -0.80698,0.806979 z m -4.29948,-0.9525 h 2.59292 v -0.661458 h -2.59292 z m -0.80698,6.416138 q -0.3175,0 -0.55562,-0.23812 -0.23813,-0.23813 -0.23813,-0.55563 v -7.937492 q 0,-0.317499 0.23813,-0.555625 0.23812,-0.238125 0.55562,-0.238125 h 7.9375 q 0.3175,0 0.55563,0.238125 0.23812,0.238125 0.23812,0.555625 v 7.937492 q 0,0.3175 -0.23812,0.55563 -0.23813,0.23812 -0.55563,0.23812 z m 0,-0.79375 h 7.9375 v -7.937492 h -7.9375 z m 0,-7.937492 v 7.937492 z"
         id="path2202-2" />
    </g>
  </g>
</svg>
