<?xml version="1.0" encoding="UTF-8" standalone="no"?>
<!-- Created with Inkscape (http://www.inkscape.org/) -->

<svg
   xmlns:dc="http://purl.org/dc/elements/1.1/"
   xmlns:cc="http://creativecommons.org/ns#"
   xmlns:rdf="http://www.w3.org/1999/02/22-rdf-syntax-ns#"
   xmlns:svg="http://www.w3.org/2000/svg"
   xmlns="http://www.w3.org/2000/svg"
   xmlns:sodipodi="http://sodipodi.sourceforge.net/DTD/sodipodi-0.dtd"
   xmlns:inkscape="http://www.inkscape.org/namespaces/inkscape"
   width="57.390591mm"
   height="81.526245mm"
   viewBox="0 0 57.390591 81.526248"
   version="1.1"
   id="svg8"
   inkscape:version="0.92.4 (5da689c313, 2019-01-14)"
   sodipodi:docname="bin.svg">
  <defs
     id="defs2" />
  <sodipodi:namedview
     id="base"
     pagecolor="#ffffff"
     bordercolor="#666666"
     borderopacity="1.0"
     inkscape:pageopacity="0.0"
     inkscape:pageshadow="2"
     inkscape:zoom="2"
     inkscape:cx="224.29787"
     inkscape:cy="169.50334"
     inkscape:document-units="mm"
     inkscape:current-layer="layer1"
     showgrid="false"
     inkscape:snap-global="false"
     fit-margin-top="0"
     fit-margin-left="0"
     fit-margin-right="0"
     fit-margin-bottom="0"
     inkscape:window-width="2560"
     inkscape:window-height="1459"
     inkscape:window-x="-13"
     inkscape:window-y="-13"
     inkscape:window-maximized="1" />
  <metadata
     id="metadata5">
    <rdf:RDF>
      <cc:Work
         rdf:about="">
        <dc:format>image/svg+xml</dc:format>
        <dc:type
           rdf:resource="http://purl.org/dc/dcmitype/StillImage" />
        <dc:title></dc:title>
      </cc:Work>
    </rdf:RDF>
  </metadata>
  <g
     inkscape:label="Layer 1"
     inkscape:groupmode="layer"
     id="layer1"
     transform="translate(-2.1904162,-2.4435526)">
    <g
       id="g871"
       transform="matrix(0.79799586,0,0,0.79799586,0.44247315,0.49360774)">
      <path
         sodipodi:nodetypes="sssssssss"
         inkscape:connector-curvature="0"
         id="rect815"
         d="m 9.061301,11.734067 h 58.700865 c 2.595135,0 4.225895,1.441451 4.684358,4.772487 l 1.024698,7.44508 c 0.45847,3.331037 -2.089223,3.817985 -4.684351,3.817985 H 7.1582804 c -2.5951349,0 -5.5050138,-0.607389 -4.684358,-3.817985 l 1.903021,-7.44508 C 5.1975992,13.295957 6.4661662,11.734067 9.061301,11.734067 Z"
         style="opacity:1;vector-effect:none;fill:#9391a1;fill-opacity:1;stroke:none;stroke-width:0.62603325;stroke-linecap:round;stroke-linejoin:miter;stroke-miterlimit:4;stroke-dasharray:none;stroke-dashoffset:0;stroke-opacity:1" />
      <path
         sodipodi:nodetypes="sssssssss"
         inkscape:connector-curvature="0"
         id="rect817"
         d="M 5.0510213,29.725675 H 71.251049 c 1.576522,0 3.004254,1.078626 2.845702,2.403298 l -8.387338,70.075037 c -0.158551,1.32468 -1.269181,2.40329 -2.845702,2.40329 H 14.48677 c -1.576521,0 -2.667572,-1.08039 -2.845708,-2.40329 L 2.2053129,32.128973 C 2.027183,30.806076 3.4744999,29.725675 5.0510213,29.725675 Z"
         style="opacity:1;vector-effect:none;fill:#9391a1;fill-opacity:1;stroke:none;stroke-width:0.52021426;stroke-linecap:round;stroke-linejoin:miter;stroke-miterlimit:4;stroke-dasharray:none;stroke-dashoffset:0;stroke-opacity:1" />
      <path
         inkscape:connector-curvature="0"
         id="rect817-7"
         d="M 38.831777,29.725674 V 104.6073 h 24.031934 c 1.576521,0 2.687011,-1.07858 2.845562,-2.40326 L 74.096752,32.128936 C 74.255303,30.804271 72.8274,29.725674 71.250879,29.725674 Z"
         style="opacity:1;vector-effect:none;fill:#737180;fill-opacity:1;stroke:none;stroke-width:0.52021426;stroke-linecap:round;stroke-linejoin:miter;stroke-miterlimit:4;stroke-dasharray:none;stroke-dashoffset:0;stroke-opacity:1" />
      <path
         sodipodi:nodetypes="sccsccssccsccss"
         inkscape:connector-curvature="0"
         id="rect815-2-3"
         d="m 26.204674,2.4435526 c -1.04156,0 -1.550693,0.9026971 -1.880074,2.7583634 l -0.763755,4.3031542 c -0.329363,1.8556658 -0.0055,2.1557018 1.035736,2.1699608 l 2.686246,0.03678 c 0.04182,-1.283716 0.367602,-2.6287537 0.59033,-3.9496747 0.241018,-1.4293647 0.613398,-2.1247917 1.375566,-2.1247917 h 17.239796 c 0.762163,0 1.241166,0.6418069 1.375816,2.1247917 -0.01886,1.2933417 0.124463,2.6137997 0.297262,3.9496747 h 3.019478 c 1.041572,0 1.058922,-0.281462 0.874908,-2.2067406 L 51.644792,5.2019178 C 51.460778,3.2766402 50.806284,2.4435545 49.764718,2.4435545 Z"
         style="opacity:1;vector-effect:none;fill:#af6639;fill-opacity:0.50681817;stroke:none;stroke-width:0.30152175;stroke-linecap:round;stroke-linejoin:miter;stroke-miterlimit:4;stroke-dasharray:none;stroke-dashoffset:0;stroke-opacity:1" />
      <path
         inkscape:connector-curvature="0"
         id="path869"
         d="M 16.623794,43.395378 23.113443,93.26089"
         style="fill:none;stroke:#000000;stroke-width:2.90679955;stroke-linecap:round;stroke-linejoin:miter;stroke-miterlimit:4;stroke-dasharray:none;stroke-opacity:0.47272728" />
      <path
         inkscape:connector-curvature="0"
         id="path869-2"
         d="M 61.402353,43.395378 54.912714,93.26089"
         style="fill:none;stroke:#000000;stroke-width:2.90679955;stroke-linecap:round;stroke-linejoin:miter;stroke-miterlimit:4;stroke-dasharray:none;stroke-opacity:0.44545456" />
      <path
         inkscape:connector-curvature="0"
         id="rect815-4"
         d="m 38.954145,11.734067 v 16.035554 h 29.833 c 2.595129,0 5.142542,-0.487062 4.684072,-3.818099 l -1.024644,-7.44512 C 71.98811,13.175366 70.35732,11.734067 67.762185,11.734067 Z"
         style="opacity:1;vector-effect:none;fill:#737180;fill-opacity:1;stroke:none;stroke-width:0.62603325;stroke-linecap:round;stroke-linejoin:miter;stroke-miterlimit:4;stroke-dasharray:none;stroke-dashoffset:0;stroke-opacity:1" />
      <g
         style="stroke:#000000;stroke-width:5;stroke-miterlimit:4;stroke-dasharray:none;stroke-opacity:0.44545456"
         transform="matrix(0.60784818,0,0,0.55602591,102.2179,-24.517899)"
         id="g894">
        <path
           style="fill:none;stroke:#000000;stroke-width:5;stroke-linecap:round;stroke-linejoin:miter;stroke-miterlimit:4;stroke-dasharray:none;stroke-opacity:0.44545456"
           d="m -103.98125,119.72917 v 51.59375"
           id="path888"
           inkscape:connector-curvature="0" />
        <path
           style="fill:none;stroke:#000000;stroke-width:5;stroke-linecap:round;stroke-linejoin:miter;stroke-miterlimit:4;stroke-dasharray:none;stroke-opacity:0.44545456"
           d="m -103.98125,178.73125 v 33.86667"
           id="path890"
           inkscape:connector-curvature="0" />
      </g>
      <path
         inkscape:connector-curvature="0"
         id="rect815-2-3-6"
         d="m 38.953946,2.4435526 v 3.1937206 h 7.534656 c 0.762163,0 1.241171,0.6418531 1.375821,2.1248379 -0.01886,1.2933423 0.124353,2.6138239 0.297151,3.9496989 h 3.01958 c 1.041572,0 1.058824,-0.28145 0.874809,-2.2067283 L 51.644788,5.201674 C 51.460775,3.2763964 50.806067,2.4435526 49.7645,2.4435526 Z"
         style="opacity:1;vector-effect:none;fill:#af6639;fill-opacity:0.50681817;stroke:none;stroke-width:0.30152175;stroke-linecap:round;stroke-linejoin:miter;stroke-miterlimit:4;stroke-dasharray:none;stroke-dashoffset:0;stroke-opacity:1" />
    </g>
  </g>
</svg>
