<?xml version="1.0" encoding="UTF-8" standalone="no"?>
<!-- Created with Inkscape (http://www.inkscape.org/) -->

<svg
   xmlns:dc="http://purl.org/dc/elements/1.1/"
   xmlns:cc="http://creativecommons.org/ns#"
   xmlns:rdf="http://www.w3.org/1999/02/22-rdf-syntax-ns#"
   xmlns:svg="http://www.w3.org/2000/svg"
   xmlns="http://www.w3.org/2000/svg"
   xmlns:sodipodi="http://sodipodi.sourceforge.net/DTD/sodipodi-0.dtd"
   xmlns:inkscape="http://www.inkscape.org/namespaces/inkscape"
   width="89.527824mm"
   height="97.289101mm"
   viewBox="0 0 89.527824 97.289101"
   version="1.1"
   id="svg1197"
   inkscape:version="0.92.4 (5da689c313, 2019-01-14)"
   sodipodi:docname="doctag.svg">
  <defs
     id="defs1191" />
  <sodipodi:namedview
     id="base"
     pagecolor="#ffffff"
     bordercolor="#666666"
     borderopacity="1.0"
     inkscape:pageopacity="0.0"
     inkscape:pageshadow="2"
     inkscape:zoom="1.4142136"
     inkscape:cx="197.01737"
     inkscape:cy="103.39105"
     inkscape:document-units="mm"
     inkscape:current-layer="layer1"
     showgrid="false"
     inkscape:snap-global="false"
     fit-margin-top="0"
     fit-margin-left="0"
     fit-margin-right="0"
     fit-margin-bottom="0"
     inkscape:window-width="2560"
     inkscape:window-height="1459"
     inkscape:window-x="-13"
     inkscape:window-y="-13"
     inkscape:window-maximized="1" />
  <metadata
     id="metadata1194">
    <rdf:RDF>
      <cc:Work
         rdf:about="">
        <dc:format>image/svg+xml</dc:format>
        <dc:type
           rdf:resource="http://purl.org/dc/dcmitype/StillImage" />
        <dc:title></dc:title>
      </cc:Work>
    </rdf:RDF>
  </metadata>
  <g
     inkscape:label="Layer 1"
     inkscape:groupmode="layer"
     id="layer1"
     transform="translate(243.68125,-64.695838)">
    <path
       style="opacity:1;vector-effect:none;fill:#6e6c87;fill-opacity:1;stroke:none;stroke-width:1.62342978;stroke-linecap:round;stroke-linejoin:miter;stroke-miterlimit:4;stroke-dasharray:none;stroke-dashoffset:11.37873936;stroke-opacity:1"
       d="m -225.18309,70.040591 h 37.67735 l 13.40876,9.879246 10.63093,11.287429 -0.32215,52.952074 h -61.39489 z"
       id="rect1805"
       inkscape:connector-curvature="0"
       sodipodi:nodetypes="ccccccc" />
    <path
       id="path1783"
       d="m -166.73276,148.71824 h -57.16174 q -2.63823,0 -4.61691,-1.98996 -1.97867,-1.99005 -1.97867,-4.64339 V 71.329188 q 0,-2.653339 1.97867,-4.643389 1.97868,-1.989961 4.61691,-1.989961 h 38.25439 l 25.50292,25.648905 v 51.740147 q 0,2.65334 -1.97867,4.64339 -1.97867,1.98996 -4.6169,1.98996 z M -188.93791,93.21921 V 71.329188 h -34.95659 v 70.755702 h 57.16174 V 93.21921 Z m -48.14775,68.76573 q -2.63824,0 -4.61692,-1.98996 -1.97867,-1.99005 -1.97867,-4.64339 V 86.917544 h 6.59559 v 68.434046 h 54.74333 v 6.63335 z M -223.8945,71.329188 V 93.21921 71.329188 142.08489 Z"
       inkscape:connector-curvature="0"
       style="fill:#353346;fill-opacity:1;stroke:none;stroke-width:2.20481348;stroke-opacity:1" />
    <path
       style="fill:#c5662c;fill-opacity:1;stroke:none;stroke-width:0.21476622px;stroke-linecap:butt;stroke-linejoin:miter;stroke-opacity:1"
       d="m -186.12671,114.76185 18.98283,-6.60603 11.31377,28.47424 -19.1347,6.60603 z"
       id="path1808"
       inkscape:connector-curvature="0" />
    <path
       id="path1762"
       d="m -194.34528,141.69084 -1.25962,-0.3514 q -1.75252,-0.70285 -2.38233,-2.40976 -0.62981,-1.7069 0.35599,-3.3636 l 3.28596,-6.82765 z m 10.18649,3.91588 q -1.86205,0 -3.17644,-1.20488 -1.31438,-1.20487 -1.31438,-2.91182 v -10.39204 l 5.03848,13.15324 q 0.10954,0.40161 0.32858,0.70285 0.21907,0.30132 0.54765,0.65265 z m 10.29603,-1.20488 q -1.1501,0.45182 -2.40972,-0.20075 -1.25962,-0.65264 -1.80727,-1.80732 l -10.46033,-26.05549 q -0.54766,-1.15467 0.10954,-2.25913 0.65719,-1.10447 2.02635,-1.60649 l 17.41561,-5.77341 q 1.25962,-0.40161 2.46447,0.20075 1.20486,0.60244 1.75252,1.80732 l 10.46032,25.75426 q 0.38335,1.25508 -0.16431,2.45996 -0.54766,1.20488 -1.91681,1.6567 z m -4.49082,-24.85061 q 0.65718,0 1.15008,-0.45182 0.49289,-0.45186 0.49289,-1.0543 0,-0.60244 -0.49289,-1.05425 -0.4929,-0.45182 -1.15008,-0.45182 -0.6572,0 -1.15009,0.45182 -0.4929,0.45181 -0.4929,1.05425 0,0.60244 0.4929,1.0543 0.49289,0.45182 1.15009,0.45182 z m 3.45026,21.93879 17.41561,-5.82356 -10.46032,-26.0555 -17.41561,5.77341 z m -10.46032,-26.10565 17.41561,-5.77341 z"
       inkscape:connector-curvature="0"
       style="fill:#2a2938;fill-opacity:1;stroke:none;stroke-width:1.04870093;stroke-opacity:1" />
    <ellipse
       style="opacity:1;vector-effect:none;fill:#353346;fill-opacity:1;stroke:none;stroke-width:1.52612841;stroke-linecap:round;stroke-linejoin:miter;stroke-miterlimit:4;stroke-dasharray:none;stroke-dashoffset:11.37873936;stroke-opacity:1"
       id="path1810"
       cx="-240.37923"
       cy="87.273132"
       rx="3.302031"
       ry="2.550349" />
    <ellipse
       style="opacity:1;vector-effect:none;fill:#353346;fill-opacity:1;stroke:none;stroke-width:1.52612841;stroke-linecap:round;stroke-linejoin:miter;stroke-miterlimit:4;stroke-dasharray:none;stroke-dashoffset:11.37873936;stroke-opacity:1"
       id="path1810-0"
       cx="158.65605"
       cy="182.63396"
       rx="3.302031"
       ry="2.550349"
       transform="rotate(90)" />
  </g>
</svg>
