<?xml version="1.0" encoding="UTF-8" standalone="no"?>
<!-- Created with Inkscape (http://www.inkscape.org/) -->

<svg
   width="63.930397mm"
   height="64.194557mm"
   viewBox="0 0 63.930397 64.194557"
   version="1.1"
   id="svg47482"
   inkscape:version="1.1.2 (0a00cf5, 2022-02-04)"
   sodipodi:docname="pdfdown.svg"
   xmlns:inkscape="http://www.inkscape.org/namespaces/inkscape"
   xmlns:sodipodi="http://sodipodi.sourceforge.net/DTD/sodipodi-0.dtd"
   xmlns="http://www.w3.org/2000/svg"
   xmlns:svg="http://www.w3.org/2000/svg">
  <sodipodi:namedview
     id="namedview47484"
     pagecolor="#ffffff"
     bordercolor="#666666"
     borderopacity="1.0"
     inkscape:pageshadow="2"
     inkscape:pageopacity="0.0"
     inkscape:pagecheckerboard="0"
     inkscape:document-units="mm"
     showgrid="false"
     inkscape:snap-global="false"
     fit-margin-top="0"
     fit-margin-left="0"
     fit-margin-right="0"
     fit-margin-bottom="0"
     inkscape:zoom="0.56"
     inkscape:cx="-7.1428571"
     inkscape:cy="150.89286"
     inkscape:window-width="1536"
     inkscape:window-height="784"
     inkscape:window-x="0"
     inkscape:window-y="0"
     inkscape:window-maximized="1"
     inkscape:current-layer="layer1" />
  <defs
     id="defs47479">
    <rect
       x="525.07495"
       y="407.88718"
       width="106.81509"
       height="75.152527"
       id="rect49513" />
  </defs>
  <g
     inkscape:label="Layer 1"
     inkscape:groupmode="layer"
     id="layer1"
     transform="translate(-169.82119,-62.48658)">
    <g
       id="g62167">
      <path
         id="rect135-3-6"
         style="fill:#ffb586;fill-rule:evenodd;stroke:#2a2939;stroke-width:2.00458;stroke-linecap:round;stroke-linejoin:round;stroke-miterlimit:4;stroke-dasharray:48.1099, 2.00458;stroke-dashoffset:2.00458"
         d="m 215.67037,120.92979 -33.38161,0.41501 c 0,0 -10.67993,-12.94655 -10.69203,-12.88607 l -0.77298,-43.061666 c -0.0107,-0.58576 0.451,-1.06648 1.03675,-1.07787 l 42.69312,-0.83002 c 0.58575,-0.0114 1.06648,0.451 1.07787,1.03676 l 1.07563,55.325976 c 0.0114,0.58576 -0.451,1.06649 -1.03675,1.07788 z"
         sodipodi:nodetypes="sccssssss" />
      <path
         id="rect135-3-6-7"
         style="fill:#f1a779;fill-opacity:1;fill-rule:evenodd;stroke:none;stroke-width:1.90178;stroke-linejoin:round;stroke-dasharray:45.6427, 1.90178;stroke-dashoffset:1.90178"
         d="m 182.5038,120.33628 10.05257,-0.12892 a 27.890249,38.022586 0 0 1 -9.76403,-28.895491 27.890249,38.022586 0 0 1 7.71756,-26.244575 l -17.75308,0.35559 c -0.54749,0.011 -0.9789,0.47389 -0.96888,1.03797 l 0.72248,41.466646 c 0.0113,-0.0582 9.99338,12.40878 9.99338,12.40878 z" />
      <path
         style="fill:#f6995e;fill-opacity:1;stroke:none;stroke-width:0.176206px;stroke-linecap:butt;stroke-linejoin:miter;stroke-opacity:1"
         d="m 182.56252,120.25366 -0.15595,-12.04629 -10.7072,-0.20629 z"
         id="path23939" />
      <path
         style="fill:none;stroke:#2a2939;stroke-width:1.53174;stroke-linecap:round;stroke-linejoin:miter;stroke-miterlimit:4;stroke-dasharray:none;stroke-opacity:1"
         d="m 183.09169,120.25366 c 0,0 0.37487,-11.76957 -0.10117,-12.1095 -0.62188,-0.44409 -10.4801,-0.21666 -10.4801,-0.21666"
         id="path19802"
         sodipodi:nodetypes="csc" />
      <path
         style="fill:none;stroke:#45476c;stroke-width:2;stroke-linecap:round;stroke-linejoin:miter;stroke-miterlimit:4;stroke-dasharray:none;stroke-opacity:1"
         d="m 201.66182,97.579986 -22.84361,0.118767"
         id="path29779-5-3" />
      <path
         style="fill:none;stroke:#45476c;stroke-width:2;stroke-linecap:round;stroke-linejoin:miter;stroke-miterlimit:4;stroke-dasharray:none;stroke-opacity:1"
         d="m 211.01357,91.240739 -32.55559,0.118768"
         id="path29779-5-3-5" />
      <text
         xml:space="preserve"
         transform="matrix(0.37176022,0,0,0.42669225,-13.513506,-105.13445)"
         id="text49511"
         style="font-style:normal;font-variant:normal;font-weight:bold;font-stretch:normal;font-size:40px;line-height:1.25;font-family:Carlito;-inkscape-font-specification:'Carlito, Bold';font-variant-ligatures:normal;font-variant-caps:normal;font-variant-numeric:normal;font-variant-east-asian:normal;white-space:pre;shape-inside:url(#rect49513);fill:#45476c;fill-opacity:1;stroke:none;stroke-opacity:1"><tspan
           x="525.07422"
           y="442.88672"
           id="tspan62522">PDF</tspan></text>
      <path
         id="rect61765"
         style="fill:#45476c;stroke:#45476c;stroke-width:1.11872;stroke-linecap:round;stroke-linejoin:round;stroke-dashoffset:7.57637"
         d="m 208.0795,96.41573 v 14.35567 h -7.34412 l 16.22844,15.3504 9.91395,-9.37756 h 0.0781 v -0.0739 l 6.23644,-5.89894 h -6.23644 V 96.41573 Z" />
    </g>
  </g>
</svg>
