<?xml version="1.0" encoding="UTF-8" standalone="no"?>
<!-- Created with Inkscape (http://www.inkscape.org/) -->

<svg
   xmlns:dc="http://purl.org/dc/elements/1.1/"
   xmlns:cc="http://creativecommons.org/ns#"
   xmlns:rdf="http://www.w3.org/1999/02/22-rdf-syntax-ns#"
   xmlns:svg="http://www.w3.org/2000/svg"
   xmlns="http://www.w3.org/2000/svg"
   xmlns:sodipodi="http://sodipodi.sourceforge.net/DTD/sodipodi-0.dtd"
   xmlns:inkscape="http://www.inkscape.org/namespaces/inkscape"
   width="65.700089mm"
   height="87.895393mm"
   viewBox="0 0 65.700089 87.895393"
   version="1.1"
   id="svg8"
   inkscape:version="0.92.4 (5da689c313, 2019-01-14)"
   sodipodi:docname="upld_qstn.svg">
  <defs
     id="defs2" />
  <sodipodi:namedview
     id="base"
     pagecolor="#ffffff"
     bordercolor="#666666"
     borderopacity="1.0"
     inkscape:pageopacity="0.0"
     inkscape:pageshadow="2"
     inkscape:zoom="2.0000001"
     inkscape:cx="-97.106329"
     inkscape:cy="95.109416"
     inkscape:document-units="mm"
     inkscape:current-layer="layer1"
     showgrid="false"
     inkscape:snap-global="false"
     showguides="false"
     fit-margin-top="0"
     fit-margin-left="0"
     fit-margin-right="0"
     fit-margin-bottom="0"
     inkscape:window-width="2560"
     inkscape:window-height="1459"
     inkscape:window-x="-13"
     inkscape:window-y="-13"
     inkscape:window-maximized="1" />
  <metadata
     id="metadata5">
    <rdf:RDF>
      <cc:Work
         rdf:about="">
        <dc:format>image/svg+xml</dc:format>
        <dc:type
           rdf:resource="http://purl.org/dc/dcmitype/StillImage" />
        <dc:title />
      </cc:Work>
    </rdf:RDF>
  </metadata>
  <g
     inkscape:label="Layer 1"
     inkscape:groupmode="layer"
     id="layer1"
     transform="translate(-3.0779212,-27.632758)">
    <path
       id="path1180"
       d="m 3.0779212,53.349338 c 0,6.725222 5.4886358,12.181538 12.2536998,12.181538 h 31.315012 c 6.016225,0 10.892175,-4.847239 10.892175,-10.828034 0,-5.23637 -3.744184,-9.60988 -8.713741,-10.608089 0.34889,-0.905156 0.544608,-1.894906 0.544608,-2.926953 0,-4.483483 -3.65909,-8.121025 -8.169133,-8.121025 -1.676374,0 -3.242124,0.507564 -4.535571,1.370423 -2.357135,-4.060513 -6.756553,-6.78444 -11.802695,-6.78444 -7.52241,0 -13.615222,6.056931 -13.615222,13.535042 0,0.228404 0.0085,0.456808 0.01702,0.685211 -4.7653278,1.666503 -8.1861528,6.183823 -8.1861528,11.496327 z"
       inkscape:connector-curvature="0"
       style="fill:#4b4a6b;fill-opacity:1;stroke:none;stroke-width:0.0848442" />
    <path
       id="rect135-3-6"
       style="fill:#ffb586;fill-rule:evenodd;stroke:#49445c;stroke-width:2.00500011;stroke-linejoin:round;stroke-miterlimit:4;stroke-dasharray:none;stroke-dashoffset:3.01062489;stroke-opacity:1"
       d="m 24.018137,56.866573 33.381824,0.396759 c 0,0 10.361989,13.202394 10.375556,13.142229 l -0.274262,43.067729 c -0.0035,0.58585 -0.476802,1.0552 -1.062654,1.05235 l -42.700679,-0.20827 c -0.585854,-0.003 -1.055199,-0.47681 -1.052342,-1.06266 l 0.269898,-55.335794 c 0.0029,-0.585856 0.476804,-1.055201 1.062659,-1.052343 z"
       sodipodi:nodetypes="sccssssss"
       inkscape:connector-curvature="0" />
    <path
       style="fill:none;stroke:#49445c;stroke-width:1.53174174;stroke-linecap:round;stroke-linejoin:miter;stroke-miterlimit:4;stroke-dasharray:none;stroke-opacity:1"
       d="m 56.252146,58.706105 c 0,0 -0.660928,11.756966 -0.193296,12.108374 0.610906,0.45908 10.990061,0.32027 10.990061,0.32027"
       id="path19802"
       sodipodi:nodetypes="csc"
       inkscape:connector-curvature="0" />
    <path
       style="fill:#f6995e;fill-opacity:1;stroke:none;stroke-width:0.17620558px;stroke-linecap:butt;stroke-linejoin:miter;stroke-opacity:1"
       d="m 56.789964,58.083814 -0.136993,12.046515 10.699021,0.466576 z"
       id="path23939"
       inkscape:connector-curvature="0" />
    <g
       inkscape:export-ydpi="100"
       inkscape:export-xdpi="100"
       inkscape:export-filename="/home/blackarck/code/praksheetcom/images/prepprint.png"
       transform="matrix(0.0039549,0.2685577,-0.2685577,0.0039549,-33.728513,202.91729)"
       id="g47414">
      <path
         inkscape:connector-curvature="0"
         sodipodi:nodetypes="cccccc"
         d="m -82.166831,202.25259 h 52.388688 v 117.42063 l -26.194344,38.10808 -26.194344,-38.10808 z"
         style="fill:#494760;fill-opacity:1;stroke-width:1.79770994;stroke-linecap:round;stroke-linejoin:round;stroke-dashoffset:45.50550079"
         id="rect30242" />
      <path
         inkscape:connector-curvature="0"
         sodipodi:nodetypes="sssccssss"
         d="m -68.425003,162.90094 c -7.760158,0 -15.085268,12.95818 -15.085268,21.24675 v 6.75962 c 0,1.2617 0.14582,2.48558 0.41865,3.65456 h 54.162709 c 0.272825,-1.16898 0.418643,-2.39286 0.418643,-3.65456 v -6.75962 c 0,-8.28857 -5.170185,-21.24675 -12.930354,-21.24675 z"
         style="fill:#ff995a;fill-opacity:1;stroke:none;stroke-width:1.92576003;stroke-linecap:round;stroke-linejoin:round;stroke-miterlimit:4;stroke-dasharray:none;stroke-dashoffset:45.50550079;stroke-opacity:1"
         id="rect30346" />
      <path
         inkscape:connector-curvature="0"
         d="m -46.90021,202.62292 v 142.05645 l 16.933851,-24.6357 V 202.62292 Z"
         style="fill:#2a2939;fill-opacity:1;stroke-width:1.79770994;stroke-linecap:round;stroke-linejoin:round;stroke-dashoffset:45.50550079"
         id="rect30242-9" />
      <path
         inkscape:connector-curvature="0"
         d="m -46.90021,163.27132 v 31.66112 h 17.783412 c 0.272823,-1.16898 0.418579,-2.39286 0.418579,-3.65456 v -6.75979 c 0,-8.28857 -5.170307,-21.24677 -12.930478,-21.24677 z"
         style="fill:#d08b61;fill-opacity:1;stroke:none;stroke-width:1.92576003;stroke-linecap:round;stroke-linejoin:round;stroke-miterlimit:4;stroke-dasharray:none;stroke-dashoffset:45.50550079;stroke-opacity:1"
         id="rect30346-1" />
    </g>
    <path
       style="opacity:1;vector-effect:none;fill:#38304d;fill-opacity:1;stroke:none;stroke-width:1.50061107;stroke-linecap:round;stroke-linejoin:miter;stroke-miterlimit:4;stroke-dasharray:none;stroke-dashoffset:11.37873936;stroke-opacity:0.50588223"
       d="M 46.016439,80.568176 32.905462,98.011831 h 6.036709 V 110.12838 H 53.090707 V 98.011831 h 6.036709 z"
       id="rect1046"
       inkscape:connector-curvature="0" />
  </g>
</svg>
